<svg width="232" height="62" viewBox="0 0 232 62" fill="none" xmlns="http://www.w3.org/2000/svg">
<path d="M6.45661 56.6139H1.10368L9.85175 11.725H15.2047L14.2547 16.6622C17.1707 12.7983 20.9789 10.9572 25.737 10.9572C29.7187 10.9572 32.6347 12.5011 34.4768 15.655C35.6664 17.7355 36.2612 20.1711 36.2612 23.0855C36.2612 24.6294 36.1455 26.2394 35.782 28.0227C34.7742 33.1333 32.6925 37.2366 29.6526 40.3905C26.6209 43.5444 23.1101 45.0883 19.1202 45.0883C14.3621 45.0883 11.2726 43.2472 9.78566 39.3833L6.45661 56.6222V56.6139ZM30.6687 23.8534C30.6687 18.5033 28.1739 15.4155 23.5893 15.4155C17.939 15.4155 13.536 20.1711 12.0491 28.0227C11.7517 29.5666 11.57 30.995 11.57 32.2416C11.57 37.5339 14.1308 40.6217 18.6494 40.6217C24.2997 40.6217 28.7026 35.8661 30.2474 28.0145C30.5448 26.5284 30.6604 25.1578 30.6604 23.8534H30.6687Z" fill="white"/>
<path fill-rule="evenodd" clip-rule="evenodd" d="M25.737 11.4546C21.1321 11.4546 17.472 13.2247 14.6516 16.9618L13.3616 18.6711L14.6024 12.2224H10.2614L1.70719 56.1167H6.04764L9.62636 37.5849L10.2497 39.2047C10.9591 41.0482 12.0376 42.381 13.4843 43.2597C14.9377 44.1425 16.8026 44.591 19.1201 44.591C22.9637 44.591 26.3481 43.1105 29.294 40.0459L29.2945 40.0454C32.2595 36.9692 34.3022 32.9563 35.294 27.9266L35.2946 27.9235C35.6502 26.179 35.7637 24.6031 35.7637 23.0856C35.7637 20.2422 35.1845 17.8957 34.0462 15.9039C32.3042 12.9229 29.5641 11.4546 25.737 11.4546ZM6.45652 56.6698V57.1113H0.5L9.4419 11.2277H15.8067L15.1025 14.8877C17.9328 11.8996 21.4753 10.4599 25.737 10.4599C29.8723 10.4599 32.9638 12.0787 34.9062 15.4042L34.9085 15.4082C36.1485 17.577 36.7584 20.1011 36.7584 23.0856C36.7584 24.6556 36.6407 26.2993 36.2695 28.1211C35.2455 33.3116 33.1249 37.5046 30.0106 40.7357C26.8932 43.9785 23.2562 45.5856 19.1201 45.5856C16.6795 45.5856 14.6206 45.1136 12.968 44.1098C11.7224 43.3533 10.7301 42.3082 9.98383 40.9795L6.94481 56.7165L6.45652 56.6698ZM11.5605 27.9293C13.0686 19.9677 17.5928 14.9183 23.5892 14.9183C26.001 14.9183 27.9227 15.7359 29.2307 17.3105C30.5269 18.8709 31.1659 21.1092 31.1659 23.8534V24.3507H31.1521C31.1256 25.5361 31.0017 26.7787 30.7351 28.1113C29.169 36.0701 24.6452 41.119 18.6493 41.119C16.2689 41.119 14.3493 40.3005 13.0344 38.7363C11.73 37.1846 11.0726 34.9611 11.0726 32.2417C11.0726 30.951 11.2602 29.4885 11.5605 27.9293ZM30.1637 23.3561C30.0906 20.9944 29.492 19.1817 28.4656 17.946C27.38 16.6392 25.762 15.9129 23.5892 15.9129C18.2851 15.9129 14.0036 20.3742 12.5376 28.1153L12.5373 28.1168C12.2429 29.6453 12.0672 31.0392 12.0672 32.2417C12.0672 34.8145 12.6902 36.781 13.7958 38.0963C14.8909 39.3991 16.5111 40.1244 18.6493 40.1244C23.9538 40.1244 28.2358 35.6625 29.7593 27.9185L29.7596 27.9169C30.0501 26.4652 30.163 25.1275 30.163 23.8534V23.3561H30.1637Z" fill="white"/>
<path d="M51.4858 11.7252L45.1829 44.2464H39.8299L46.1328 11.7252H51.4858ZM53.5757 1.6279L52.2705 7.17606H46.9176L48.2228 1.6279H53.5757Z" fill="white"/>
<path fill-rule="evenodd" clip-rule="evenodd" d="M47.8286 1.13062H54.2034L52.6642 7.67341H46.2895L47.8286 1.13062ZM48.6164 2.12525L47.5452 6.67878H51.8764L52.9476 2.12525H48.6164ZM45.7224 11.2279H52.0885L45.5928 44.7437H39.2267L45.7224 11.2279ZM46.5428 12.2226L40.4326 43.7491H44.7724L50.8826 12.2226H46.5428Z" fill="white"/>
<path d="M72.815 27.4863L81.9761 44.1886H75.6732L68.6516 31.408L56.7562 44.1886H50.4533L66.3386 27.1891L57.8301 11.6757H64.133L70.502 23.2674L81.3896 11.6757H87.6925L72.8232 27.4863H72.815Z" fill="white"/>
<path fill-rule="evenodd" clip-rule="evenodd" d="M56.9903 11.1783H64.4274L70.6084 22.4278L81.1746 11.1783H88.8431L73.428 27.5693L82.8163 44.6858H75.3792L68.5472 32.2502L56.9729 44.6858H49.3081L65.7296 27.1125L56.9903 11.1783ZM72.6084 26.9889L86.5423 12.1729H81.6049L70.396 24.1067L63.839 12.1729H58.6703L66.948 27.2655L51.5989 43.6911H56.5399L68.7564 30.5655L75.9676 43.6911H81.1363L71.9752 26.9889H72.6084Z" fill="white"/>
<path d="M109.79 1.25659L119.785 30.9789L125.551 1.25659H136.141L127.757 44.5933H115.266L105.271 14.8711L99.5051 44.5933H88.9149L97.2995 1.25659H109.79Z" fill="white"/>
<path fill-rule="evenodd" clip-rule="evenodd" d="M96.8892 0.759308H110.147L119.656 29.0342L125.141 0.759308H136.744L128.167 45.0907H114.909L105.4 16.8158L99.9152 45.0907H88.3122L96.8892 0.759308ZM97.7098 1.75394L89.5177 44.0961H99.095L105.142 12.9263L115.624 44.0961H127.346L135.538 1.75394H125.961L119.914 32.9237L109.432 1.75394H97.7098Z" fill="white"/>
<path d="M190.042 12.0804L191.174 34.4959L200.987 12.0804H209.669L210.801 34.2565L220.615 12.0804H230.726L215.857 44.6015H204.498L203.367 22.252L193.553 44.6015H182.194L179.931 12.0804H190.042Z" fill="white"/>
<path fill-rule="evenodd" clip-rule="evenodd" d="M179.398 11.5831H190.515L191.564 32.3644L200.662 11.5831H210.142L211.191 32.1458L220.291 11.5831H231.5L216.176 45.0989H204.025L202.976 24.3779L193.877 45.0989H181.73L179.398 11.5831ZM180.464 12.5778L182.658 44.1043H193.228L203.757 20.1262L204.971 44.1043H215.537L229.952 12.5778H220.938L210.411 36.3673L209.197 12.5778H201.312L190.783 36.6276L189.569 12.5778H180.464Z" fill="white"/>
<path d="M225.216 54.3405H226.896L227.616 57.903L229.508 54.3405H231.188L227.856 60.0923C227.53 60.6781 227.184 61.0814 226.848 61.3118C226.502 61.5519 226.099 61.6671 225.609 61.6671H224.639L224.851 60.5628H225.379C225.945 60.5628 226.185 60.4092 226.426 59.9387L226.493 59.7946L225.216 54.3405Z" fill="white"/>
<path d="M221.504 57.2309C220.803 57.2309 220.4 57.471 220.314 57.9319C220.237 58.3544 220.486 58.6136 220.986 58.6136C221.629 58.6136 222.215 58.1047 222.34 57.4229L222.378 57.2309H221.504ZM224.193 56.5971L223.617 59.5931H221.927L222.071 58.8153C221.495 59.4586 220.918 59.7275 220.112 59.7275C219.565 59.7275 219.152 59.5739 218.873 59.257C218.604 58.9401 218.508 58.5272 218.604 58.0183C218.844 56.7892 219.776 56.2323 221.591 56.2323H222.58L222.599 56.0978C222.705 55.5697 222.34 55.3296 221.456 55.3296C220.736 55.3296 220.093 55.4833 219.507 55.7617L219.757 54.4846C220.515 54.3022 221.245 54.2158 221.975 54.2158C223.866 54.2158 224.519 54.9167 224.193 56.5971Z" fill="white"/>
<path d="M213.333 52.593H216.328C218.105 52.593 218.931 53.4188 218.652 54.8784C218.364 56.3476 217.221 57.1638 215.445 57.1638H214.254L213.784 59.5932H211.979L213.333 52.593ZM214.888 53.899L214.504 55.8578H215.503C216.194 55.8578 216.665 55.5025 216.789 54.8784C216.914 54.2542 216.578 53.899 215.887 53.899H214.888Z" fill="white"/>
<path d="M211.146 56.9524L211.05 57.4325H207.122C207.055 58.2103 207.468 58.6136 208.342 58.6136C209.043 58.6136 209.84 58.4024 210.694 57.9799L210.445 59.2762C209.59 59.5739 208.774 59.7275 207.977 59.7275C206.085 59.7275 205.163 58.7097 205.509 56.9716C205.672 56.117 206.056 55.4449 206.671 54.9551C207.286 54.4654 208.044 54.2158 208.947 54.2158C209.773 54.2158 210.387 54.4654 210.781 54.9647C211.184 55.4545 211.309 56.117 211.146 56.9524ZM209.523 56.3955C209.648 55.7521 209.331 55.3296 208.726 55.3296C208.073 55.3296 207.583 55.7041 207.343 56.3955H209.523Z" fill="white"/>
<path d="M203.514 52.2952H205.194L203.783 59.593H202.102L203.514 52.2952Z" fill="white"/>
<path d="M198.427 57.2309C197.726 57.2309 197.322 57.471 197.236 57.9319C197.159 58.3544 197.409 58.6136 197.908 58.6136C198.551 58.6136 199.137 58.1047 199.262 57.4229L199.3 57.2309H198.427ZM201.115 56.5971L200.539 59.5931H198.849L198.993 58.8153C198.417 59.4586 197.841 59.7275 197.034 59.7275C196.487 59.7275 196.074 59.5739 195.796 59.257C195.527 58.9401 195.431 58.5272 195.527 58.0183C195.767 56.7892 196.698 56.2323 198.513 56.2323H199.502L199.521 56.0978C199.627 55.5697 199.262 55.3296 198.379 55.3296C197.658 55.3296 197.015 55.4833 196.429 55.7617L196.679 54.4846C197.438 54.3022 198.167 54.2158 198.897 54.2158C200.789 54.2158 201.442 54.9167 201.115 56.5971Z" fill="white"/>
<path d="M189.714 54.3405H191.394L191.99 57.9702L194.006 54.3405H195.687L192.604 59.593H190.761L189.714 54.3405Z" fill="white"/>
<path d="M182.808 60.0827C182.443 60.7069 182.126 61.1102 181.848 61.3022C181.579 61.4943 181.253 61.5903 180.869 61.5903H180.177L180.321 60.8701H180.83C181.07 60.8701 181.262 60.8125 181.406 60.6973C181.56 60.5916 181.762 60.3228 182.002 59.9003L182.232 59.5066L181.118 54.3405H182.03L182.875 58.4503L185.314 54.3405H186.227L182.808 60.0827Z" fill="white"/>
<path d="M178.902 56.9715C178.95 56.7315 178.97 56.5106 178.97 56.2994C178.97 55.4352 178.566 54.9358 177.827 54.9358C176.915 54.9358 176.204 55.704 175.964 56.9715C175.916 57.2212 175.887 57.4517 175.887 57.6533C175.887 58.5079 176.3 59.0072 177.03 59.0072C177.942 59.0072 178.653 58.2391 178.902 56.9715ZM176.319 55.1375C176.79 54.5133 177.404 54.2157 178.173 54.2157C178.816 54.2157 179.287 54.4653 179.584 54.9743C179.776 55.3103 179.872 55.704 179.872 56.1745C179.872 56.4242 179.853 56.6835 179.795 56.9715C179.632 57.7973 179.296 58.4599 178.806 58.9688C178.317 59.4778 177.75 59.7274 177.107 59.7274C176.339 59.7274 175.839 59.4297 175.599 58.8056L175.455 59.593H174.591L176.003 52.2952H176.867L176.319 55.1375Z" fill="white"/>
<path d="M160.105 10.2063C148.425 10.2063 140.156 16.8526 137.983 28.0314C135.811 39.2103 141.527 45.8566 153.208 45.8566C164.888 45.8566 173.157 39.2103 175.33 28.0314C177.502 16.8526 171.786 10.2063 160.105 10.2063ZM145.195 36.816C144.096 37.1133 142.964 36.4528 142.667 35.3382L141.378 30.5331C141.081 29.4185 141.725 28.2626 142.824 27.9654C143.923 27.6682 145.054 28.3287 145.352 29.4433L146.64 34.2484C146.938 35.3629 146.293 36.5188 145.195 36.816ZM152.563 38.4342C151.465 38.7315 150.333 38.071 150.035 36.9564L146.326 23.1438C146.029 22.0292 146.673 20.8733 147.772 20.5761C148.871 20.2789 150.002 20.9394 150.3 22.054L154.009 35.8666C154.306 36.9812 153.662 38.137 152.563 38.4342ZM158.139 34.1328C157.041 34.4383 155.909 33.7695 155.611 32.6549L153.241 23.8456C152.943 22.731 153.588 21.5751 154.686 21.2779C155.785 20.9724 156.917 21.6412 157.214 22.7557L159.585 31.5651C159.882 32.6797 159.238 33.8356 158.139 34.1328ZM165.4 34.7437C164.302 35.041 163.17 34.3805 162.873 33.2659L159.164 19.4533C158.866 18.3387 159.51 17.1828 160.609 16.8856C161.708 16.5884 162.84 17.2489 163.137 18.3634L166.846 32.1761C167.143 33.2906 166.499 34.4465 165.4 34.7437ZM170.497 28.2791C169.399 28.5764 168.267 27.9159 167.969 26.8013L166.681 21.9962C166.383 20.8816 167.028 19.7257 168.126 19.4285C169.225 19.1313 170.357 19.7918 170.654 20.9064L171.943 25.7115C172.24 26.826 171.596 27.9819 170.497 28.2791Z" fill="white"/>
</svg>
